<?xml version="1.0" encoding="utf-8"?>
<!-- Generator: Adobe Illustrator 21.1.0, SVG Export Plug-In . SVG Version: 6.00 Build 0)  -->
<svg version="1.1" id="Layer_1" xmlns="http://www.w3.org/2000/svg" xmlns:xlink="http://www.w3.org/1999/xlink" x="0px" y="0px"
	 viewBox="0 0 784 314" style="enable-background:new 0 0 784 314;" xml:space="preserve">
<style type="text/css">
	.st0{fill-rule:evenodd;clip-rule:evenodd;fill:#E8EFF8;}
	.st1{fill-rule:evenodd;clip-rule:evenodd;fill:#AED6F1;}
	.st2{fill-rule:evenodd;clip-rule:evenodd;fill:#3498DB;}
	.st3{fill:none;stroke:#FFFFFF;stroke-linejoin:round;stroke-miterlimit:10;}
	.st4{fill:none;stroke:#3498DB;stroke-width:3;stroke-linejoin:round;stroke-miterlimit:10;}
	.st5{fill:none;stroke:#E74C32;stroke-width:0.48;stroke-miterlimit:8;}
	.st6{fill-rule:evenodd;clip-rule:evenodd;fill:#EFEAF3;}
	.st7{fill-rule:evenodd;clip-rule:evenodd;fill:#E74C32;}
	.st8{fill:none;stroke:#FFFFFF;stroke-linejoin:round;stroke-miterlimit:8;}
	.st9{fill:none;stroke:#E74C32;stroke-width:3;stroke-linejoin:round;stroke-miterlimit:8;}
	.st10{fill:none;stroke:#E74C32;stroke-width:2.28;stroke-miterlimit:8;}
	.st11{fill-rule:evenodd;clip-rule:evenodd;fill:#FFFFFF;}
	.st12{fill-rule:evenodd;clip-rule:evenodd;fill:#FADBD6;}
	.st13{fill:none;stroke:#ECF0F1;stroke-linejoin:round;stroke-miterlimit:8;}
	.st14{fill:none;stroke:#E74C32;stroke-linejoin:round;stroke-miterlimit:8;}
	.st15{fill:none;stroke:#FADBD6;stroke-linejoin:round;stroke-miterlimit:8;}
</style>
<rect x="17.8" y="15.3" class="st0" width="23.6" height="23.6"/>
<rect x="41.4" y="15.3" class="st0" width="23.6" height="23.6"/>
<rect x="65" y="15.3" class="st0" width="23.6" height="23.6"/>
<rect x="88.6" y="15.3" class="st0" width="23.6" height="23.6"/>
<rect x="112.2" y="15.3" class="st0" width="23.6" height="23.6"/>
<rect x="135.9" y="15.3" class="st0" width="23.6" height="23.6"/>
<rect x="159.5" y="15.3" class="st0" width="23.6" height="23.6"/>
<rect x="183.1" y="15.3" class="st0" width="23.6" height="23.6"/>
<rect x="206.7" y="15.3" class="st0" width="23.6" height="23.6"/>
<rect x="230.4" y="15.3" class="st0" width="23.6" height="23.6"/>
<rect x="254" y="15.3" class="st0" width="23.6" height="23.6"/>
<rect x="277.6" y="15.3" class="st0" width="23.6" height="23.6"/>
<rect x="17.8" y="38.9" class="st0" width="23.6" height="23.6"/>
<rect x="41.4" y="38.9" class="st0" width="23.6" height="23.6"/>
<rect x="65" y="38.9" class="st0" width="23.6" height="23.6"/>
<rect x="88.6" y="38.9" class="st1" width="23.6" height="23.6"/>
<rect x="112.2" y="38.9" class="st2" width="23.6" height="23.6"/>
<rect x="135.9" y="38.9" class="st2" width="23.6" height="23.6"/>
<rect x="159.5" y="38.9" class="st2" width="23.6" height="23.6"/>
<rect x="183.1" y="38.9" class="st2" width="23.6" height="23.6"/>
<rect x="206.7" y="38.9" class="st0" width="23.6" height="23.6"/>
<rect x="230.4" y="38.9" class="st0" width="23.6" height="23.6"/>
<rect x="254" y="38.9" class="st0" width="23.6" height="23.6"/>
<rect x="277.6" y="38.9" class="st0" width="23.6" height="23.6"/>
<rect x="17.8" y="62.5" class="st0" width="23.6" height="23.6"/>
<rect x="41.4" y="62.5" class="st0" width="23.6" height="23.6"/>
<rect x="65" y="62.5" class="st1" width="23.6" height="23.6"/>
<rect x="88.6" y="62.5" class="st2" width="23.6" height="23.6"/>
<rect x="112.2" y="62.5" class="st0" width="23.6" height="23.6"/>
<rect x="135.9" y="62.5" class="st0" width="23.6" height="23.6"/>
<rect x="159.5" y="62.5" class="st0" width="23.6" height="23.6"/>
<rect x="183.1" y="62.5" class="st1" width="23.6" height="23.6"/>
<rect x="206.7" y="62.5" class="st2" width="23.6" height="23.6"/>
<rect x="230.4" y="62.5" class="st0" width="23.6" height="23.6"/>
<rect x="254" y="62.5" class="st0" width="23.6" height="23.6"/>
<rect x="277.6" y="62.5" class="st0" width="23.6" height="23.6"/>
<rect x="17.8" y="86.1" class="st0" width="23.6" height="23.6"/>
<rect x="41.4" y="86.1" class="st0" width="23.6" height="23.6"/>
<rect x="65" y="86.1" class="st2" width="23.6" height="23.6"/>
<rect x="88.6" y="86.1" class="st0" width="23.6" height="23.6"/>
<rect x="112.2" y="86.1" class="st0" width="23.6" height="23.6"/>
<rect x="135.9" y="86.1" class="st0" width="23.6" height="23.6"/>
<rect x="159.5" y="86.1" class="st0" width="23.6" height="23.6"/>
<rect x="183.1" y="86.1" class="st0" width="23.6" height="23.6"/>
<rect x="206.7" y="86.1" class="st2" width="23.6" height="23.6"/>
<rect x="230.4" y="86.1" class="st0" width="23.6" height="23.6"/>
<rect x="254" y="86.1" class="st0" width="23.6" height="23.6"/>
<rect x="277.6" y="86.1" class="st0" width="23.6" height="23.6"/>
<rect x="17.8" y="109.8" class="st0" width="23.6" height="23.6"/>
<rect x="41.4" y="109.8" class="st0" width="23.6" height="23.6"/>
<rect x="65" y="109.8" class="st0" width="23.6" height="23.6"/>
<rect x="88.6" y="109.8" class="st0" width="23.6" height="23.6"/>
<rect x="112.2" y="109.8" class="st0" width="23.6" height="23.6"/>
<rect x="135.9" y="109.8" class="st0" width="23.6" height="23.6"/>
<rect x="159.5" y="109.8" class="st1" width="23.6" height="23.6"/>
<rect x="183.1" y="109.8" class="st2" width="23.6" height="23.6"/>
<rect x="206.7" y="109.8" class="st1" width="23.6" height="23.6"/>
<rect x="230.4" y="109.8" class="st0" width="23.6" height="23.6"/>
<rect x="254" y="109.8" class="st0" width="23.6" height="23.6"/>
<rect x="277.6" y="109.8" class="st0" width="23.6" height="23.6"/>
<rect x="17.8" y="133.4" class="st0" width="23.6" height="23.6"/>
<rect x="41.4" y="133.4" class="st0" width="23.6" height="23.6"/>
<rect x="65" y="133.4" class="st0" width="23.6" height="23.6"/>
<rect x="88.6" y="133.4" class="st0" width="23.6" height="23.6"/>
<rect x="112.2" y="133.4" class="st0" width="23.6" height="23.6"/>
<rect x="135.9" y="133.4" class="st1" width="23.6" height="23.6"/>
<rect x="159.5" y="133.4" class="st2" width="23.6" height="23.6"/>
<rect x="183.1" y="133.4" class="st0" width="23.6" height="23.6"/>
<rect x="206.7" y="133.4" class="st0" width="23.6" height="23.6"/>
<rect x="230.4" y="133.4" class="st0" width="23.6" height="23.6"/>
<rect x="254" y="133.4" class="st0" width="23.6" height="23.6"/>
<rect x="277.6" y="133.4" class="st0" width="23.6" height="23.6"/>
<rect x="17.8" y="157" class="st0" width="23.6" height="23.6"/>
<rect x="41.4" y="157" class="st0" width="23.6" height="23.6"/>
<rect x="65" y="157" class="st0" width="23.6" height="23.6"/>
<rect x="88.6" y="157" class="st1" width="23.6" height="23.6"/>
<rect x="112.2" y="157" class="st2" width="23.6" height="23.6"/>
<rect x="135.9" y="157" class="st2" width="23.6" height="23.6"/>
<rect x="159.5" y="157" class="st0" width="23.6" height="23.6"/>
<rect x="183.1" y="157" class="st0" width="23.6" height="23.6"/>
<rect x="206.7" y="157" class="st0" width="23.6" height="23.6"/>
<rect x="230.4" y="157" class="st0" width="23.6" height="23.6"/>
<rect x="254" y="157" class="st0" width="23.6" height="23.6"/>
<rect x="277.6" y="157" class="st0" width="23.6" height="23.6"/>
<rect x="17.8" y="180.6" class="st0" width="23.6" height="23.6"/>
<rect x="41.4" y="180.6" class="st0" width="23.6" height="23.6"/>
<rect x="65" y="180.6" class="st0" width="23.6" height="23.6"/>
<rect x="88.6" y="180.6" class="st2" width="23.6" height="23.6"/>
<rect x="112.2" y="180.6" class="st0" width="23.6" height="23.6"/>
<rect x="135.9" y="180.6" class="st0" width="23.6" height="23.6"/>
<rect x="159.5" y="180.6" class="st0" width="23.6" height="23.6"/>
<rect x="183.1" y="180.6" class="st0" width="23.6" height="23.6"/>
<rect x="206.7" y="180.6" class="st0" width="23.6" height="23.6"/>
<rect x="230.4" y="180.6" class="st0" width="23.6" height="23.6"/>
<rect x="254" y="180.6" class="st0" width="23.6" height="23.6"/>
<rect x="277.6" y="180.6" class="st0" width="23.6" height="23.6"/>
<rect x="17.8" y="204.2" class="st0" width="23.6" height="23.6"/>
<rect x="41.4" y="204.2" class="st0" width="23.6" height="23.6"/>
<rect x="65" y="204.2" class="st2" width="23.6" height="23.6"/>
<rect x="88.6" y="204.2" class="st1" width="23.6" height="23.6"/>
<rect x="112.2" y="204.2" class="st0" width="23.6" height="23.6"/>
<rect x="135.9" y="204.2" class="st2" width="23.6" height="23.6"/>
<rect x="159.5" y="204.2" class="st2" width="23.6" height="23.6"/>
<rect x="183.1" y="204.2" class="st2" width="23.6" height="23.6"/>
<rect x="206.7" y="204.2" class="st2" width="23.6" height="23.6"/>
<rect x="230.4" y="204.2" class="st0" width="23.6" height="23.6"/>
<rect x="254" y="204.2" class="st0" width="23.6" height="23.6"/>
<rect x="277.6" y="204.2" class="st0" width="23.6" height="23.6"/>
<rect x="17.8" y="227.9" class="st0" width="23.6" height="23.6"/>
<rect x="41.4" y="227.9" class="st0" width="23.6" height="23.6"/>
<rect x="65" y="227.9" class="st2" width="23.6" height="23.6"/>
<rect x="88.6" y="227.9" class="st2" width="23.6" height="23.6"/>
<rect x="112.2" y="227.9" class="st2" width="23.6" height="23.6"/>
<rect x="135.9" y="227.9" class="st1" width="23.6" height="23.6"/>
<rect x="159.5" y="227.9" class="st0" width="23.6" height="23.6"/>
<rect x="183.1" y="227.9" class="st0" width="23.6" height="23.6"/>
<rect x="206.7" y="227.9" class="st0" width="23.6" height="23.6"/>
<rect x="230.4" y="227.9" class="st0" width="23.6" height="23.6"/>
<rect x="254" y="227.9" class="st0" width="23.6" height="23.6"/>
<rect x="277.6" y="227.9" class="st0" width="23.6" height="23.6"/>
<rect x="17.8" y="251.5" class="st0" width="23.6" height="23.6"/>
<rect x="41.4" y="251.5" class="st0" width="23.6" height="23.6"/>
<rect x="65" y="251.5" class="st0" width="23.6" height="23.6"/>
<rect x="88.6" y="251.5" class="st0" width="23.6" height="23.6"/>
<rect x="112.2" y="251.5" class="st0" width="23.6" height="23.6"/>
<rect x="135.9" y="251.5" class="st0" width="23.6" height="23.6"/>
<rect x="159.5" y="251.5" class="st0" width="23.6" height="23.6"/>
<rect x="183.1" y="251.5" class="st0" width="23.6" height="23.6"/>
<rect x="206.7" y="251.5" class="st0" width="23.6" height="23.6"/>
<rect x="230.4" y="251.5" class="st0" width="23.6" height="23.6"/>
<rect x="254" y="251.5" class="st0" width="23.6" height="23.6"/>
<rect x="277.6" y="251.5" class="st0" width="23.6" height="23.6"/>
<rect x="17.8" y="275.1" class="st0" width="23.6" height="23.6"/>
<rect x="41.4" y="275.1" class="st0" width="23.6" height="23.6"/>
<rect x="65" y="275.1" class="st0" width="23.6" height="23.6"/>
<rect x="88.6" y="275.1" class="st0" width="23.6" height="23.6"/>
<rect x="112.2" y="275.1" class="st0" width="23.6" height="23.6"/>
<rect x="135.9" y="275.1" class="st0" width="23.6" height="23.6"/>
<rect x="159.5" y="275.1" class="st0" width="23.6" height="23.6"/>
<rect x="183.1" y="275.1" class="st0" width="23.6" height="23.6"/>
<rect x="206.7" y="275.1" class="st0" width="23.6" height="23.6"/>
<rect x="230.4" y="275.1" class="st0" width="23.6" height="23.6"/>
<rect x="254" y="275.1" class="st0" width="23.6" height="23.6"/>
<rect x="277.6" y="275.1" class="st0" width="23.6" height="23.6"/>
<line class="st3" x1="41.4" y1="13.8" x2="41.4" y2="300.2"/>
<line class="st3" x1="65" y1="13.8" x2="65" y2="300.2"/>
<line class="st3" x1="88.6" y1="13.8" x2="88.6" y2="300.2"/>
<line class="st3" x1="112.2" y1="13.8" x2="112.2" y2="300.2"/>
<line class="st3" x1="135.9" y1="13.8" x2="135.9" y2="300.2"/>
<line class="st3" x1="159.5" y1="13.8" x2="159.5" y2="300.2"/>
<line class="st3" x1="183.1" y1="13.8" x2="183.1" y2="300.2"/>
<line class="st3" x1="206.7" y1="13.8" x2="206.7" y2="300.2"/>
<line class="st3" x1="230.4" y1="13.8" x2="230.4" y2="300.2"/>
<line class="st3" x1="254" y1="13.8" x2="254" y2="300.2"/>
<line class="st3" x1="277.6" y1="13.8" x2="277.6" y2="300.2"/>
<line class="st3" x1="16.3" y1="38.9" x2="302.7" y2="38.9"/>
<line class="st3" x1="16.3" y1="62.5" x2="302.7" y2="62.5"/>
<line class="st3" x1="16.3" y1="86.1" x2="302.7" y2="86.1"/>
<line class="st3" x1="16.3" y1="109.8" x2="302.7" y2="109.8"/>
<line class="st3" x1="16.3" y1="133.4" x2="302.7" y2="133.4"/>
<line class="st3" x1="16.3" y1="157" x2="302.7" y2="157"/>
<line class="st3" x1="16.3" y1="180.6" x2="302.7" y2="180.6"/>
<line class="st3" x1="16.3" y1="204.2" x2="302.7" y2="204.2"/>
<line class="st3" x1="16.3" y1="227.9" x2="302.7" y2="227.9"/>
<line class="st3" x1="16.3" y1="251.5" x2="302.7" y2="251.5"/>
<line class="st3" x1="16.3" y1="275.1" x2="302.7" y2="275.1"/>
<line class="st4" x1="17.8" y1="13.8" x2="17.8" y2="300.2"/>
<line class="st4" x1="301.2" y1="13.8" x2="301.2" y2="300.2"/>
<line class="st4" x1="16.3" y1="15.3" x2="302.7" y2="15.3"/>
<line class="st4" x1="16.3" y1="298.7" x2="302.7" y2="298.7"/>
<line class="st5" x1="356.5" y1="15.3" x2="159.4" y2="86.1"/>
<line class="st5" x1="427.4" y1="15.3" x2="230.4" y2="86.1"/>
<line class="st5" x1="356.5" y1="86.1" x2="159.4" y2="157"/>
<line class="st5" x1="427.4" y1="86.1" x2="230.4" y2="157"/>
<rect x="356.6" y="15.3" class="st6" width="23.6" height="23.6"/>
<rect x="380.2" y="15.3" class="st6" width="23.6" height="23.6"/>
<rect x="403.8" y="15.3" class="st7" width="23.6" height="23.6"/>
<rect x="356.6" y="38.9" class="st6" width="23.6" height="23.6"/>
<rect x="380.2" y="38.9" class="st7" width="23.6" height="23.6"/>
<rect x="403.8" y="38.9" class="st6" width="23.6" height="23.6"/>
<rect x="356.6" y="62.5" class="st7" width="23.6" height="23.6"/>
<rect x="380.2" y="62.5" class="st6" width="23.6" height="23.6"/>
<rect x="403.8" y="62.5" class="st6" width="23.6" height="23.6"/>
<line class="st8" x1="380.2" y1="13.8" x2="380.2" y2="87.6"/>
<line class="st8" x1="403.8" y1="13.8" x2="403.8" y2="87.6"/>
<line class="st8" x1="355.1" y1="38.9" x2="428.9" y2="38.9"/>
<line class="st8" x1="355.1" y1="62.5" x2="428.9" y2="62.5"/>
<line class="st9" x1="356.6" y1="13.8" x2="356.6" y2="87.6"/>
<line class="st9" x1="427.4" y1="13.8" x2="427.4" y2="87.6"/>
<line class="st9" x1="355.1" y1="15.3" x2="428.9" y2="15.3"/>
<line class="st9" x1="355.1" y1="86.1" x2="428.9" y2="86.1"/>
<rect x="159.5" y="86.1" class="st10" width="70.9" height="70.9"/>
<rect x="486.3" y="15.3" class="st11" width="23.6" height="23.6"/>
<rect x="509.9" y="15.3" class="st11" width="23.6" height="23.6"/>
<rect x="533.5" y="15.3" class="st11" width="23.6" height="23.6"/>
<rect x="557.2" y="15.3" class="st11" width="23.6" height="23.6"/>
<rect x="580.8" y="15.3" class="st11" width="23.6" height="23.6"/>
<rect x="604.4" y="15.3" class="st11" width="23.6" height="23.6"/>
<rect x="628" y="15.3" class="st11" width="23.6" height="23.6"/>
<rect x="651.7" y="15.3" class="st11" width="23.6" height="23.6"/>
<rect x="675.3" y="15.3" class="st11" width="23.6" height="23.6"/>
<rect x="698.9" y="15.3" class="st11" width="23.6" height="23.6"/>
<rect x="722.5" y="15.3" class="st11" width="23.6" height="23.6"/>
<rect x="746.1" y="15.3" class="st11" width="23.6" height="23.6"/>
<rect x="486.3" y="38.9" class="st11" width="23.6" height="23.6"/>
<rect x="509.9" y="38.9" class="st11" width="23.6" height="23.6"/>
<rect x="533.5" y="38.9" class="st11" width="23.6" height="23.6"/>
<rect x="557.2" y="38.9" class="st11" width="23.6" height="23.6"/>
<rect x="580.8" y="38.9" class="st11" width="23.6" height="23.6"/>
<rect x="604.4" y="38.9" class="st11" width="23.6" height="23.6"/>
<rect x="628" y="38.9" class="st11" width="23.6" height="23.6"/>
<rect x="651.7" y="38.9" class="st11" width="23.6" height="23.6"/>
<rect x="675.3" y="38.9" class="st11" width="23.6" height="23.6"/>
<rect x="698.9" y="38.9" class="st11" width="23.6" height="23.6"/>
<rect x="722.5" y="38.9" class="st11" width="23.6" height="23.6"/>
<rect x="746.1" y="38.9" class="st11" width="23.6" height="23.6"/>
<rect x="486.3" y="62.5" class="st11" width="23.6" height="23.6"/>
<rect x="509.9" y="62.5" class="st11" width="23.6" height="23.6"/>
<rect x="533.5" y="62.5" class="st11" width="23.6" height="23.6"/>
<rect x="557.2" y="62.5" class="st11" width="23.6" height="23.6"/>
<rect x="580.8" y="62.5" class="st11" width="23.6" height="23.6"/>
<rect x="604.4" y="62.5" class="st11" width="23.6" height="23.6"/>
<rect x="628" y="62.5" class="st11" width="23.6" height="23.6"/>
<rect x="651.7" y="62.5" class="st11" width="23.6" height="23.6"/>
<rect x="675.3" y="62.5" class="st11" width="23.6" height="23.6"/>
<rect x="698.9" y="62.5" class="st11" width="23.6" height="23.6"/>
<rect x="722.5" y="62.5" class="st11" width="23.6" height="23.6"/>
<rect x="746.1" y="62.5" class="st11" width="23.6" height="23.6"/>
<rect x="486.3" y="86.1" class="st11" width="23.6" height="23.6"/>
<rect x="509.9" y="86.1" class="st11" width="23.6" height="23.6"/>
<rect x="533.5" y="86.1" class="st11" width="23.6" height="23.6"/>
<rect x="557.2" y="86.1" class="st11" width="23.6" height="23.6"/>
<rect x="580.8" y="86.1" class="st11" width="23.6" height="23.6"/>
<rect x="604.4" y="86.1" class="st11" width="23.6" height="23.6"/>
<rect x="628" y="86.1" class="st11" width="23.6" height="23.6"/>
<rect x="651.7" y="86.1" class="st11" width="23.6" height="23.6"/>
<rect x="675.3" y="86.1" class="st11" width="23.6" height="23.6"/>
<rect x="698.9" y="86.1" class="st11" width="23.6" height="23.6"/>
<rect x="722.5" y="86.1" class="st11" width="23.6" height="23.6"/>
<rect x="746.1" y="86.1" class="st11" width="23.6" height="23.6"/>
<rect x="486.3" y="109.8" class="st11" width="23.6" height="23.6"/>
<rect x="509.9" y="109.8" class="st11" width="23.6" height="23.6"/>
<rect x="533.5" y="109.8" class="st11" width="23.6" height="23.6"/>
<rect x="557.2" y="109.8" class="st11" width="23.6" height="23.6"/>
<rect x="580.8" y="109.8" class="st11" width="23.6" height="23.6"/>
<rect x="604.4" y="109.8" class="st11" width="23.6" height="23.6"/>
<rect x="628" y="109.8" class="st11" width="23.6" height="23.6"/>
<rect x="651.7" y="109.8" class="st7" width="23.6" height="23.6"/>
<rect x="675.3" y="109.8" class="st11" width="23.6" height="23.6"/>
<rect x="698.9" y="109.8" class="st11" width="23.6" height="23.6"/>
<rect x="722.5" y="109.8" class="st11" width="23.6" height="23.6"/>
<rect x="746.1" y="109.8" class="st11" width="23.6" height="23.6"/>
<rect x="486.3" y="133.4" class="st11" width="23.6" height="23.6"/>
<rect x="509.9" y="133.4" class="st11" width="23.6" height="23.6"/>
<rect x="533.5" y="133.4" class="st11" width="23.6" height="23.6"/>
<rect x="557.2" y="133.4" class="st11" width="23.6" height="23.6"/>
<rect x="580.8" y="133.4" class="st11" width="23.6" height="23.6"/>
<rect x="604.4" y="133.4" class="st11" width="23.6" height="23.6"/>
<rect x="628" y="133.4" class="st11" width="23.6" height="23.6"/>
<rect x="651.7" y="133.4" class="st11" width="23.6" height="23.6"/>
<rect x="675.3" y="133.4" class="st11" width="23.6" height="23.6"/>
<rect x="698.9" y="133.4" class="st11" width="23.6" height="23.6"/>
<rect x="722.5" y="133.4" class="st11" width="23.6" height="23.6"/>
<rect x="746.1" y="133.4" class="st11" width="23.6" height="23.6"/>
<rect x="486.3" y="157" class="st11" width="23.6" height="23.6"/>
<rect x="509.9" y="157" class="st11" width="23.6" height="23.6"/>
<rect x="533.5" y="157" class="st11" width="23.6" height="23.6"/>
<rect x="557.2" y="157" class="st11" width="23.6" height="23.6"/>
<rect x="580.8" y="157" class="st11" width="23.6" height="23.6"/>
<rect x="604.4" y="157" class="st11" width="23.6" height="23.6"/>
<rect x="628" y="157" class="st11" width="23.6" height="23.6"/>
<rect x="651.7" y="157" class="st11" width="23.6" height="23.6"/>
<rect x="675.3" y="157" class="st11" width="23.6" height="23.6"/>
<rect x="698.9" y="157" class="st11" width="23.6" height="23.6"/>
<rect x="722.5" y="157" class="st11" width="23.6" height="23.6"/>
<rect x="746.1" y="157" class="st11" width="23.6" height="23.6"/>
<rect x="486.3" y="180.6" class="st11" width="23.6" height="23.6"/>
<rect x="509.9" y="180.6" class="st11" width="23.6" height="23.6"/>
<rect x="533.5" y="180.6" class="st11" width="23.6" height="23.6"/>
<rect x="557.2" y="180.6" class="st11" width="23.6" height="23.6"/>
<rect x="580.8" y="180.6" class="st11" width="23.6" height="23.6"/>
<rect x="604.4" y="180.6" class="st11" width="23.6" height="23.6"/>
<rect x="628" y="180.6" class="st11" width="23.6" height="23.6"/>
<rect x="651.7" y="180.6" class="st11" width="23.6" height="23.6"/>
<rect x="675.3" y="180.6" class="st11" width="23.6" height="23.6"/>
<rect x="698.9" y="180.6" class="st11" width="23.6" height="23.6"/>
<rect x="722.5" y="180.6" class="st11" width="23.6" height="23.6"/>
<rect x="746.1" y="180.6" class="st11" width="23.6" height="23.6"/>
<rect x="486.3" y="204.2" class="st11" width="23.6" height="23.6"/>
<rect x="509.9" y="204.2" class="st11" width="23.6" height="23.6"/>
<rect x="533.5" y="204.2" class="st11" width="23.6" height="23.6"/>
<rect x="557.2" y="204.2" class="st11" width="23.6" height="23.6"/>
<rect x="580.8" y="204.2" class="st11" width="23.6" height="23.6"/>
<rect x="604.4" y="204.2" class="st11" width="23.6" height="23.6"/>
<rect x="628" y="204.2" class="st11" width="23.6" height="23.6"/>
<rect x="651.7" y="204.2" class="st11" width="23.6" height="23.6"/>
<rect x="675.3" y="204.2" class="st11" width="23.6" height="23.6"/>
<rect x="698.9" y="204.2" class="st11" width="23.6" height="23.6"/>
<rect x="722.5" y="204.2" class="st11" width="23.6" height="23.6"/>
<rect x="746.1" y="204.2" class="st11" width="23.6" height="23.6"/>
<rect x="486.3" y="227.9" class="st11" width="23.6" height="23.6"/>
<rect x="509.9" y="227.9" class="st11" width="23.6" height="23.6"/>
<rect x="533.5" y="227.9" class="st11" width="23.6" height="23.6"/>
<rect x="557.2" y="227.9" class="st11" width="23.6" height="23.6"/>
<rect x="580.8" y="227.9" class="st11" width="23.6" height="23.6"/>
<rect x="604.4" y="227.9" class="st11" width="23.6" height="23.6"/>
<rect x="628" y="227.9" class="st11" width="23.6" height="23.6"/>
<rect x="651.7" y="227.9" class="st11" width="23.6" height="23.6"/>
<rect x="675.3" y="227.9" class="st11" width="23.6" height="23.6"/>
<rect x="698.9" y="227.9" class="st12" width="23.6" height="23.6"/>
<rect x="722.5" y="227.9" class="st11" width="23.6" height="23.6"/>
<rect x="746.1" y="227.9" class="st11" width="23.6" height="23.6"/>
<rect x="486.3" y="251.5" class="st11" width="23.6" height="23.6"/>
<rect x="509.9" y="251.5" class="st11" width="23.6" height="23.6"/>
<rect x="533.5" y="251.5" class="st11" width="23.6" height="23.6"/>
<rect x="557.2" y="251.5" class="st11" width="23.6" height="23.6"/>
<rect x="580.8" y="251.5" class="st11" width="23.6" height="23.6"/>
<rect x="604.4" y="251.5" class="st11" width="23.6" height="23.6"/>
<rect x="628" y="251.5" class="st11" width="23.6" height="23.6"/>
<rect x="651.7" y="251.5" class="st11" width="23.6" height="23.6"/>
<rect x="675.3" y="251.5" class="st11" width="23.6" height="23.6"/>
<rect x="698.9" y="251.5" class="st11" width="23.6" height="23.6"/>
<rect x="722.5" y="251.5" class="st11" width="23.6" height="23.6"/>
<rect x="746.1" y="251.5" class="st11" width="23.6" height="23.6"/>
<rect x="486.3" y="275.1" class="st11" width="23.6" height="23.6"/>
<rect x="509.9" y="275.1" class="st11" width="23.6" height="23.6"/>
<rect x="533.5" y="275.1" class="st11" width="23.6" height="23.6"/>
<rect x="557.2" y="275.1" class="st11" width="23.6" height="23.6"/>
<rect x="580.8" y="275.1" class="st11" width="23.6" height="23.6"/>
<rect x="604.4" y="275.1" class="st11" width="23.6" height="23.6"/>
<rect x="628" y="275.1" class="st11" width="23.6" height="23.6"/>
<rect x="651.7" y="275.1" class="st11" width="23.6" height="23.6"/>
<rect x="675.3" y="275.1" class="st11" width="23.6" height="23.6"/>
<rect x="698.9" y="275.1" class="st11" width="23.6" height="23.6"/>
<rect x="722.5" y="275.1" class="st11" width="23.6" height="23.6"/>
<rect x="746.1" y="275.1" class="st11" width="23.6" height="23.6"/>
<line class="st13" x1="509.9" y1="14.8" x2="509.9" y2="299.2"/>
<line class="st13" x1="533.5" y1="14.8" x2="533.5" y2="299.2"/>
<line class="st13" x1="557.2" y1="14.8" x2="557.2" y2="299.2"/>
<line class="st13" x1="580.8" y1="14.8" x2="580.8" y2="299.2"/>
<line class="st13" x1="604.4" y1="14.8" x2="604.4" y2="299.2"/>
<line class="st13" x1="628" y1="14.8" x2="628" y2="299.2"/>
<line class="st13" x1="651.7" y1="14.8" x2="651.7" y2="109.8"/>
<line class="st14" x1="651.7" y1="109.8" x2="651.7" y2="133.4"/>
<line class="st13" x1="651.7" y1="133.4" x2="651.7" y2="299.2"/>
<line class="st13" x1="675.3" y1="14.8" x2="675.3" y2="109.8"/>
<line class="st14" x1="675.3" y1="109.8" x2="675.3" y2="133.4"/>
<line class="st13" x1="675.3" y1="133.4" x2="675.3" y2="299.2"/>
<line class="st13" x1="698.9" y1="14.8" x2="698.9" y2="227.9"/>
<line class="st15" x1="698.9" y1="227.9" x2="698.9" y2="251.5"/>
<line class="st13" x1="698.9" y1="251.5" x2="698.9" y2="299.2"/>
<line class="st13" x1="722.5" y1="14.8" x2="722.5" y2="227.9"/>
<line class="st15" x1="722.5" y1="227.9" x2="722.5" y2="251.5"/>
<line class="st13" x1="722.5" y1="251.5" x2="722.5" y2="299.2"/>
<line class="st13" x1="746.1" y1="14.8" x2="746.1" y2="299.2"/>
<line class="st13" x1="485.8" y1="38.9" x2="770.3" y2="38.9"/>
<line class="st13" x1="485.8" y1="62.5" x2="770.3" y2="62.5"/>
<line class="st13" x1="485.8" y1="86.1" x2="770.3" y2="86.1"/>
<line class="st13" x1="485.8" y1="109.8" x2="651.7" y2="109.8"/>
<line class="st14" x1="651.7" y1="109.8" x2="675.3" y2="109.8"/>
<line class="st13" x1="675.3" y1="109.8" x2="770.3" y2="109.8"/>
<line class="st13" x1="485.8" y1="133.4" x2="651.7" y2="133.4"/>
<line class="st14" x1="651.7" y1="133.4" x2="675.3" y2="133.4"/>
<line class="st13" x1="675.3" y1="133.4" x2="770.3" y2="133.4"/>
<line class="st13" x1="485.8" y1="157" x2="770.3" y2="157"/>
<line class="st13" x1="485.8" y1="180.6" x2="770.3" y2="180.6"/>
<line class="st13" x1="485.8" y1="204.2" x2="770.3" y2="204.2"/>
<line class="st13" x1="485.8" y1="227.9" x2="698.9" y2="227.9"/>
<line class="st15" x1="698.9" y1="227.9" x2="722.5" y2="227.9"/>
<line class="st13" x1="722.5" y1="227.9" x2="770.3" y2="227.9"/>
<line class="st13" x1="485.8" y1="251.5" x2="698.9" y2="251.5"/>
<line class="st15" x1="698.9" y1="251.5" x2="722.5" y2="251.5"/>
<line class="st13" x1="722.5" y1="251.5" x2="770.3" y2="251.5"/>
<line class="st13" x1="485.8" y1="275.1" x2="770.3" y2="275.1"/>
<line class="st13" x1="486.3" y1="14.8" x2="486.3" y2="299.2"/>
<line class="st13" x1="769.8" y1="14.8" x2="769.8" y2="299.2"/>
<line class="st13" x1="485.8" y1="15.3" x2="770.3" y2="15.3"/>
<line class="st13" x1="485.8" y1="298.7" x2="770.3" y2="298.7"/>
<line class="st5" x1="360.1" y1="188.6" x2="206.5" y2="204.3"/>
<line class="st5" x1="427.5" y1="188.6" x2="277.4" y2="204.3"/>
<line class="st5" x1="356.5" y1="259.4" x2="206.5" y2="275.1"/>
<line class="st5" x1="427.5" y1="259.4" x2="277.4" y2="275.1"/>
<rect x="206.5" y="204.3" class="st10" width="70.9" height="70.9"/>
<line class="st5" x1="674.9" y1="109.8" x2="427.4" y2="15.3"/>
<line class="st5" x1="674.9" y1="133.3" x2="427.4" y2="86.1"/>
<line class="st5" x1="651.4" y1="109.8" x2="356.6" y2="15.3"/>
<line class="st5" x1="651.4" y1="133.3" x2="356.6" y2="86.1"/>
<line class="st5" x1="722.6" y1="227.9" x2="427.4" y2="188.6"/>
<line class="st5" x1="722.6" y1="251.6" x2="427.4" y2="259.4"/>
<line class="st5" x1="698.9" y1="227.9" x2="356.6" y2="188.6"/>
<line class="st5" x1="698.9" y1="251.6" x2="356.6" y2="259.4"/>
<rect x="356.6" y="188.5" class="st6" width="23.6" height="23.6"/>
<rect x="380.2" y="188.5" class="st6" width="23.6" height="23.6"/>
<rect x="403.8" y="188.5" class="st7" width="23.6" height="23.6"/>
<rect x="356.6" y="212.1" class="st6" width="23.6" height="23.6"/>
<rect x="380.2" y="212.1" class="st7" width="23.6" height="23.6"/>
<rect x="403.8" y="212.1" class="st6" width="23.6" height="23.6"/>
<rect x="356.6" y="235.8" class="st7" width="23.6" height="23.6"/>
<rect x="380.2" y="235.8" class="st6" width="23.6" height="23.6"/>
<rect x="403.8" y="235.8" class="st6" width="23.6" height="23.6"/>
<line class="st9" x1="356.6" y1="187" x2="356.6" y2="260.9"/>
<line class="st9" x1="427.4" y1="187" x2="427.4" y2="260.9"/>
<line class="st9" x1="355.1" y1="188.5" x2="428.9" y2="188.5"/>
<line class="st9" x1="355.1" y1="259.4" x2="428.9" y2="259.4"/>
</svg>
